<mxfile host="app.diagrams.net" modified="2021-06-03T08:04:27.551Z" agent="5.0 (Windows NT 10.0; Win64; x64) AppleWebKit/537.36 (KHTML, like Gecko) Chrome/87.0.4280.88 Safari/537.36" etag="18TRPsU27sOCpgbyuZ5Z" version="14.7.3" type="github">
  <diagram id="kgpKYQtTHZ0yAKxKKP6v" name="Page-1">
    <mxGraphModel dx="2272" dy="762" grid="1" gridSize="10" guides="1" tooltips="1" connect="1" arrows="1" fold="1" page="1" pageScale="1" pageWidth="850" pageHeight="1100" math="0" shadow="0">
      <root>
        <mxCell id="0" />
        <mxCell id="1" parent="0" />
        <mxCell id="WJ6oJNyNd8eeu6Pzfcjg-29" value="Policy Change Notification" style="shape=umlFrame;whiteSpace=wrap;html=1;width=100;height=49;" parent="1" vertex="1">
          <mxGeometry x="-670" y="131" width="1750" height="378" as="geometry" />
        </mxCell>
        <mxCell id="Upf0A19Yq0ez-udiKR_j-33" value="ZTSA / DataLake" style="shape=umlLifeline;perimeter=lifelinePerimeter;container=1;collapsible=0;recursiveResize=0;rounded=0;shadow=0;strokeWidth=1;" parent="1" vertex="1">
          <mxGeometry x="850" y="60" width="150" height="850" as="geometry" />
        </mxCell>
        <mxCell id="SiqBBNk7Fq4k7bAk1j-C-13" value="" style="html=1;points=[];perimeter=orthogonalPerimeter;" vertex="1" parent="Upf0A19Yq0ez-udiKR_j-33">
          <mxGeometry x="70" y="253.5" width="10" height="70" as="geometry" />
        </mxCell>
        <mxCell id="WJ6oJNyNd8eeu6Pzfcjg-20" value="SaseOne Reverse Proxy" style="shape=umlLifeline;perimeter=lifelinePerimeter;container=1;collapsible=0;recursiveResize=0;rounded=0;shadow=0;strokeWidth=1;" parent="1" vertex="1">
          <mxGeometry x="670" y="60" width="150" height="850" as="geometry" />
        </mxCell>
        <mxCell id="WJ6oJNyNd8eeu6Pzfcjg-34" value="" style="html=1;points=[];perimeter=orthogonalPerimeter;" parent="WJ6oJNyNd8eeu6Pzfcjg-20" vertex="1">
          <mxGeometry x="70" y="90" width="10" height="60" as="geometry" />
        </mxCell>
        <mxCell id="WJ6oJNyNd8eeu6Pzfcjg-21" value="SASEOne Proxy" style="shape=umlLifeline;perimeter=lifelinePerimeter;container=1;collapsible=0;recursiveResize=0;rounded=0;shadow=0;strokeWidth=1;" parent="1" vertex="1">
          <mxGeometry x="490" y="60" width="150" height="850" as="geometry" />
        </mxCell>
        <mxCell id="SiqBBNk7Fq4k7bAk1j-C-10" value="" style="html=1;points=[];perimeter=orthogonalPerimeter;" vertex="1" parent="WJ6oJNyNd8eeu6Pzfcjg-21">
          <mxGeometry x="70" y="250" width="10" height="77" as="geometry" />
        </mxCell>
        <mxCell id="WJ6oJNyNd8eeu6Pzfcjg-22" value="Rule Engine" style="shape=umlLifeline;perimeter=lifelinePerimeter;container=1;collapsible=0;recursiveResize=0;rounded=0;shadow=0;strokeWidth=1;" parent="1" vertex="1">
          <mxGeometry x="310" y="60" width="150" height="850" as="geometry" />
        </mxCell>
        <mxCell id="SiqBBNk7Fq4k7bAk1j-C-8" value="" style="html=1;points=[];perimeter=orthogonalPerimeter;" vertex="1" parent="WJ6oJNyNd8eeu6Pzfcjg-22">
          <mxGeometry x="70" y="93" width="10" height="117" as="geometry" />
        </mxCell>
        <mxCell id="WJ6oJNyNd8eeu6Pzfcjg-25" value="Event Service" style="shape=umlLifeline;perimeter=lifelinePerimeter;container=1;collapsible=0;recursiveResize=0;rounded=0;shadow=0;strokeWidth=1;" parent="1" vertex="1">
          <mxGeometry x="-50" y="60" width="150" height="850" as="geometry" />
        </mxCell>
        <mxCell id="SiqBBNk7Fq4k7bAk1j-C-46" value="" style="html=1;points=[];perimeter=orthogonalPerimeter;" vertex="1" parent="WJ6oJNyNd8eeu6Pzfcjg-25">
          <mxGeometry x="70" y="172" width="10" height="40" as="geometry" />
        </mxCell>
        <mxCell id="WJ6oJNyNd8eeu6Pzfcjg-26" value="Event Worker" style="shape=umlLifeline;perimeter=lifelinePerimeter;container=1;collapsible=0;recursiveResize=0;rounded=0;shadow=0;strokeWidth=1;" parent="1" vertex="1">
          <mxGeometry x="-230" y="60" width="150" height="850" as="geometry" />
        </mxCell>
        <mxCell id="WJ6oJNyNd8eeu6Pzfcjg-27" value="ChannelSvc" style="shape=umlLifeline;perimeter=lifelinePerimeter;container=1;collapsible=0;recursiveResize=0;rounded=0;shadow=0;strokeWidth=1;" parent="1" vertex="1">
          <mxGeometry x="-410" y="60" width="150" height="850" as="geometry" />
        </mxCell>
        <mxCell id="WJ6oJNyNd8eeu6Pzfcjg-28" value="Connector" style="shape=umlLifeline;perimeter=lifelinePerimeter;container=1;collapsible=0;recursiveResize=0;rounded=0;shadow=0;strokeWidth=1;" parent="1" vertex="1">
          <mxGeometry x="-590" y="60" width="150" height="850" as="geometry" />
        </mxCell>
        <mxCell id="WJ6oJNyNd8eeu6Pzfcjg-30" value="" style="html=1;points=[];perimeter=orthogonalPerimeter;" parent="1" vertex="1">
          <mxGeometry x="690" y="230" height="80" as="geometry" />
        </mxCell>
        <mxCell id="WJ6oJNyNd8eeu6Pzfcjg-33" value="cid rule change notification" style="html=1;verticalAlign=bottom;endArrow=block;exitX=0.507;exitY=0.14;exitDx=0;exitDy=0;exitPerimeter=0;" parent="1" edge="1">
          <mxGeometry width="80" relative="1" as="geometry">
            <mxPoint x="926.0500000000002" y="169" as="sourcePoint" />
            <mxPoint x="752" y="169" as="targetPoint" />
          </mxGeometry>
        </mxCell>
        <mxCell id="SiqBBNk7Fq4k7bAk1j-C-1" value="" style="shape=table;html=1;whiteSpace=wrap;startSize=0;container=1;collapsible=0;childLayout=tableLayout;" vertex="1" parent="1">
          <mxGeometry x="950" y="134" width="90" height="96" as="geometry" />
        </mxCell>
        <mxCell id="SiqBBNk7Fq4k7bAk1j-C-2" value="" style="shape=partialRectangle;html=1;whiteSpace=wrap;collapsible=0;dropTarget=0;pointerEvents=0;fillColor=none;top=0;left=0;bottom=0;right=0;points=[[0,0.5],[1,0.5]];portConstraint=eastwest;" vertex="1" parent="SiqBBNk7Fq4k7bAk1j-C-1">
          <mxGeometry width="90" height="32" as="geometry" />
        </mxCell>
        <mxCell id="SiqBBNk7Fq4k7bAk1j-C-3" value="accessRule" style="shape=partialRectangle;html=1;whiteSpace=wrap;connectable=0;overflow=hidden;fillColor=none;top=0;left=0;bottom=0;right=0;" vertex="1" parent="SiqBBNk7Fq4k7bAk1j-C-2">
          <mxGeometry width="90" height="32" as="geometry" />
        </mxCell>
        <mxCell id="SiqBBNk7Fq4k7bAk1j-C-4" value="" style="shape=partialRectangle;html=1;whiteSpace=wrap;collapsible=0;dropTarget=0;pointerEvents=0;fillColor=none;top=0;left=0;bottom=0;right=0;points=[[0,0.5],[1,0.5]];portConstraint=eastwest;" vertex="1" parent="SiqBBNk7Fq4k7bAk1j-C-1">
          <mxGeometry y="32" width="90" height="32" as="geometry" />
        </mxCell>
        <mxCell id="SiqBBNk7Fq4k7bAk1j-C-5" value="corporateapps" style="shape=partialRectangle;html=1;whiteSpace=wrap;connectable=0;overflow=hidden;fillColor=none;top=0;left=0;bottom=0;right=0;" vertex="1" parent="SiqBBNk7Fq4k7bAk1j-C-4">
          <mxGeometry width="90" height="32" as="geometry" />
        </mxCell>
        <mxCell id="SiqBBNk7Fq4k7bAk1j-C-6" value="" style="shape=partialRectangle;html=1;whiteSpace=wrap;collapsible=0;dropTarget=0;pointerEvents=0;fillColor=none;top=0;left=0;bottom=0;right=0;points=[[0,0.5],[1,0.5]];portConstraint=eastwest;" vertex="1" parent="SiqBBNk7Fq4k7bAk1j-C-1">
          <mxGeometry y="64" width="90" height="32" as="geometry" />
        </mxCell>
        <mxCell id="SiqBBNk7Fq4k7bAk1j-C-7" value="usergroup" style="shape=partialRectangle;html=1;whiteSpace=wrap;connectable=0;overflow=hidden;fillColor=none;top=0;left=0;bottom=0;right=0;" vertex="1" parent="SiqBBNk7Fq4k7bAk1j-C-6">
          <mxGeometry width="90" height="32" as="geometry" />
        </mxCell>
        <mxCell id="SiqBBNk7Fq4k7bAk1j-C-9" value="notify change" style="html=1;verticalAlign=bottom;endArrow=block;entryX=1;entryY=0.197;entryDx=0;entryDy=0;entryPerimeter=0;" edge="1" parent="1" target="SiqBBNk7Fq4k7bAk1j-C-8">
          <mxGeometry width="80" relative="1" as="geometry">
            <mxPoint x="740" y="176" as="sourcePoint" />
            <mxPoint x="393" y="181" as="targetPoint" />
          </mxGeometry>
        </mxCell>
        <mxCell id="SiqBBNk7Fq4k7bAk1j-C-14" value="get rule" style="html=1;verticalAlign=bottom;endArrow=block;entryX=-0.2;entryY=0.171;entryDx=0;entryDy=0;entryPerimeter=0;exitX=1.2;exitY=0.225;exitDx=0;exitDy=0;exitPerimeter=0;" edge="1" parent="1" source="SiqBBNk7Fq4k7bAk1j-C-10" target="SiqBBNk7Fq4k7bAk1j-C-13">
          <mxGeometry width="80" relative="1" as="geometry">
            <mxPoint x="565" y="222" as="sourcePoint" />
            <mxPoint x="420" y="210" as="targetPoint" />
          </mxGeometry>
        </mxCell>
        <mxCell id="SiqBBNk7Fq4k7bAk1j-C-23" value="DevMgmt" style="shape=umlLifeline;perimeter=lifelinePerimeter;container=1;collapsible=0;recursiveResize=0;rounded=0;shadow=0;strokeWidth=1;" vertex="1" parent="1">
          <mxGeometry x="130" y="60" width="150" height="850" as="geometry" />
        </mxCell>
        <mxCell id="SiqBBNk7Fq4k7bAk1j-C-43" value="" style="html=1;points=[];perimeter=orthogonalPerimeter;" vertex="1" parent="1">
          <mxGeometry x="200" y="190" width="10" height="40" as="geometry" />
        </mxCell>
        <mxCell id="SiqBBNk7Fq4k7bAk1j-C-44" value="1. clear cache&lt;br&gt;2.get online connectors from cid&lt;br&gt;" style="html=1;verticalAlign=bottom;endArrow=block;exitX=-0.4;exitY=0.372;exitDx=0;exitDy=0;exitPerimeter=0;" edge="1" parent="1" source="SiqBBNk7Fq4k7bAk1j-C-8" target="SiqBBNk7Fq4k7bAk1j-C-43">
          <mxGeometry width="80" relative="1" as="geometry">
            <mxPoint x="750" y="190" as="sourcePoint" />
            <mxPoint x="210" y="204" as="targetPoint" />
          </mxGeometry>
        </mxCell>
        <mxCell id="SiqBBNk7Fq4k7bAk1j-C-45" value="return online connectors" style="html=1;verticalAlign=bottom;endArrow=open;dashed=1;endSize=8;exitX=0.9;exitY=0.649;exitDx=0;exitDy=0;exitPerimeter=0;" edge="1" parent="1">
          <mxGeometry relative="1" as="geometry">
            <mxPoint x="209" y="224.96000000000004" as="sourcePoint" />
            <mxPoint x="380" y="224.96000000000004" as="targetPoint" />
          </mxGeometry>
        </mxCell>
        <mxCell id="SiqBBNk7Fq4k7bAk1j-C-48" value="send deploy event to connectors" style="html=1;verticalAlign=bottom;endArrow=block;entryX=1.1;entryY=0.338;entryDx=0;entryDy=0;entryPerimeter=0;exitX=-0.1;exitY=0.812;exitDx=0;exitDy=0;exitPerimeter=0;" edge="1" parent="1" source="SiqBBNk7Fq4k7bAk1j-C-8" target="SiqBBNk7Fq4k7bAk1j-C-46">
          <mxGeometry width="80" relative="1" as="geometry">
            <mxPoint x="410" y="290" as="sourcePoint" />
            <mxPoint x="490" y="290" as="targetPoint" />
          </mxGeometry>
        </mxCell>
        <mxCell id="SiqBBNk7Fq4k7bAk1j-C-49" value="" style="html=1;points=[];perimeter=orthogonalPerimeter;" vertex="1" parent="1">
          <mxGeometry x="-160" y="244" width="10" height="20" as="geometry" />
        </mxCell>
        <mxCell id="SiqBBNk7Fq4k7bAk1j-C-50" value="send deploy event to connectors" style="html=1;verticalAlign=bottom;endArrow=block;entryX=1.1;entryY=0.375;entryDx=0;entryDy=0;entryPerimeter=0;exitX=-0.2;exitY=0.5;exitDx=0;exitDy=0;exitPerimeter=0;" edge="1" parent="1" source="SiqBBNk7Fq4k7bAk1j-C-46" target="SiqBBNk7Fq4k7bAk1j-C-49">
          <mxGeometry width="80" relative="1" as="geometry">
            <mxPoint x="391" y="259.03700000000003" as="sourcePoint" />
            <mxPoint x="41" y="258.52" as="targetPoint" />
          </mxGeometry>
        </mxCell>
        <mxCell id="SiqBBNk7Fq4k7bAk1j-C-51" value="" style="html=1;points=[];perimeter=orthogonalPerimeter;" vertex="1" parent="1">
          <mxGeometry x="-340" y="247" width="10" height="20" as="geometry" />
        </mxCell>
        <mxCell id="SiqBBNk7Fq4k7bAk1j-C-52" value="send deploy event to connectors" style="html=1;verticalAlign=bottom;endArrow=block;entryX=0.9;entryY=0.5;entryDx=0;entryDy=0;entryPerimeter=0;" edge="1" parent="1" target="SiqBBNk7Fq4k7bAk1j-C-51">
          <mxGeometry width="80" relative="1" as="geometry">
            <mxPoint x="-162" y="257" as="sourcePoint" />
            <mxPoint x="-330" y="250" as="targetPoint" />
          </mxGeometry>
        </mxCell>
        <mxCell id="SiqBBNk7Fq4k7bAk1j-C-53" value="" style="html=1;points=[];perimeter=orthogonalPerimeter;" vertex="1" parent="1">
          <mxGeometry x="-520" y="248" width="10" height="72" as="geometry" />
        </mxCell>
        <mxCell id="SiqBBNk7Fq4k7bAk1j-C-54" value="send deploy event to connectors" style="html=1;verticalAlign=bottom;endArrow=block;exitX=-0.3;exitY=0.55;exitDx=0;exitDy=0;exitPerimeter=0;" edge="1" parent="1" source="SiqBBNk7Fq4k7bAk1j-C-51">
          <mxGeometry width="80" relative="1" as="geometry">
            <mxPoint x="-152" y="267" as="sourcePoint" />
            <mxPoint x="-511" y="258" as="targetPoint" />
          </mxGeometry>
        </mxCell>
        <mxCell id="SiqBBNk7Fq4k7bAk1j-C-57" value="" style="html=1;points=[];perimeter=orthogonalPerimeter;" vertex="1" parent="1">
          <mxGeometry x="380" y="287" width="10" height="60" as="geometry" />
        </mxCell>
        <mxCell id="SiqBBNk7Fq4k7bAk1j-C-59" value="get rule" style="html=1;verticalAlign=bottom;endArrow=block;exitX=1.3;exitY=0.722;exitDx=0;exitDy=0;exitPerimeter=0;entryX=0;entryY=0.25;entryDx=0;entryDy=0;entryPerimeter=0;" edge="1" parent="1" source="SiqBBNk7Fq4k7bAk1j-C-53" target="SiqBBNk7Fq4k7bAk1j-C-57">
          <mxGeometry width="80" relative="1" as="geometry">
            <mxPoint x="70" y="290" as="sourcePoint" />
            <mxPoint x="385" y="300" as="targetPoint" />
          </mxGeometry>
        </mxCell>
      </root>
    </mxGraphModel>
  </diagram>
</mxfile>
